HIERARCHY
ROOT newVegas:Hips
{
	OFFSET 0.000000 96.479958 0.000000
	CHANNELS 6 Xposition Yposition Zposition Xrotation Yrotation Zrotation
	JOINT newVegas:Pelvis
	{
		OFFSET 0.000000 0.000000 0.000000
		CHANNELS 3 Xrotation Yrotation Zrotation
		JOINT newVegas:LeftUpLeg
		{
			OFFSET 18.735201 -5.666702 -4.541200
			CHANNELS 3 Xrotation Yrotation Zrotation
			JOINT newVegas:LeftLeg
			{
				OFFSET -0.021200 -31.938179 0.493100
				CHANNELS 3 Xrotation Yrotation Zrotation
				JOINT newVegas:LeftFoot
				{
					OFFSET 0.021200 -31.938179 -4.336299
					CHANNELS 3 Xrotation Yrotation Zrotation
					JOINT newVegas:LeftToeBase
					{
						OFFSET 0.943001 -26.722000 15.023500
						CHANNELS 3 Xrotation Yrotation Zrotation
						End Site
						{
							OFFSET 0.000000 30.670183 0.000000
						}
					}
				}
				JOINT newVegas:Left_PantLeg
				{
					OFFSET 0.663870 -9.044666 -1.108900
					CHANNELS 3 Xrotation Yrotation Zrotation
					End Site
					{
						OFFSET 1.415995 20.635357 0.000000
					}
				}
			}
		}
		JOINT newVegas:RightUpLeg
		{
			OFFSET -18.735201 -5.666702 -4.541200
			CHANNELS 3 Xrotation Yrotation Zrotation
			JOINT newVegas:RightLeg
			{
				OFFSET 0.018946 -31.938133 0.493100
				CHANNELS 3 Xrotation Yrotation Zrotation
				JOINT newVegas:RightFoot
				{
					OFFSET -0.018946 -31.938126 -4.336299
					CHANNELS 3 Xrotation Yrotation Zrotation
					JOINT newVegas:RightToeBase
					{
						OFFSET -0.943001 -26.722004 15.023500
						CHANNELS 3 Xrotation Yrotation Zrotation
						End Site
						{
							OFFSET 0.000000 30.670187 0.000000
						}
					}
				}
				JOINT newVegas:Right_PantLeg
				{
					OFFSET -0.661674 -9.044716 -1.108900
					CHANNELS 3 Xrotation Yrotation Zrotation
					End Site
					{
						OFFSET -1.415958 20.635269 0.000000
					}
				}
			}
		}
	}
	JOINT newVegas:Spine
	{
		OFFSET 0.000000 10.199997 -0.299500
		CHANNELS 3 Xrotation Yrotation Zrotation
		JOINT newVegas:Spine1
		{
			OFFSET 0.000000 11.900002 -1.516600
			CHANNELS 3 Xrotation Yrotation Zrotation
			JOINT newVegas:Spine2
			{
				OFFSET 0.000000 13.600006 -2.842500
				CHANNELS 3 Xrotation Yrotation Zrotation
				JOINT newVegas:Neck
				{
					OFFSET 0.000000 9.624100 -2.890100
					CHANNELS 3 Xrotation Yrotation Zrotation
					JOINT newVegas:Head
					{
						OFFSET 0.000000 14.068802 -1.351900
						CHANNELS 3 Xrotation Yrotation Zrotation
						JOINT newVegas:Hair_Back
						{
							OFFSET 0.000000 3.231903 -17.524799
							CHANNELS 3 Xrotation Yrotation Zrotation
							End Site
							{
								OFFSET 0.000000 19.849884 0.000000
							}
						}
						JOINT newVegas:Hair_Front
						{
							OFFSET 0.000000 31.260406 4.573800
							CHANNELS 3 Xrotation Yrotation Zrotation
							JOINT newVegas:Hair_Front1
							{
								OFFSET 0.000000 2.284103 11.993300
								CHANNELS 3 Xrotation Yrotation Zrotation
								JOINT newVegas:Hair_Front2
								{
									OFFSET 0.000000 2.284103 11.993300
									CHANNELS 3 Xrotation Yrotation Zrotation
									End Site
									{
										OFFSET 0.000000 12.208862 0.000000
									}
								}
							}
						}
						JOINT newVegas:Jowel
						{
							OFFSET 0.000000 -7.458206 6.864100
							CHANNELS 3 Xrotation Yrotation Zrotation
							End Site
							{
								OFFSET 0.000000 19.849884 0.000000
							}
						}
					}
				}
				JOINT newVegas:LeftShoulder
				{
					OFFSET 15.263000 10.923401 -0.547700
					CHANNELS 3 Xrotation Yrotation Zrotation
					JOINT newVegas:LeftArm
					{
						OFFSET 25.438599 -2.830597 -13.032500
						CHANNELS 3 Xrotation Yrotation Zrotation
						JOINT newVegas:LeftForeArm
						{
							OFFSET 29.960503 0.000000 0.000000
							CHANNELS 3 Xrotation Yrotation Zrotation
							JOINT newVegas:LeftHand
							{
								OFFSET 27.849251 0.000000 0.000000
								CHANNELS 3 Xrotation Yrotation Zrotation
								JOINT newVegas:LeftHandThumb1
								{
									OFFSET 4.487587 -3.305161 6.305391
									CHANNELS 3 Xrotation Yrotation Zrotation
									JOINT newVegas:LeftHandThumb2
									{
										OFFSET 5.480453 -3.164139 3.164143
										CHANNELS 3 Xrotation Yrotation Zrotation
										JOINT newVegas:LeftHandThumb3
										{
											OFFSET 5.159721 -2.978973 2.978967
											CHANNELS 3 Xrotation Yrotation Zrotation
											End Site
											{
												OFFSET 2.494507 5.926697 1.738678
											}
										}
									}
								}
								JOINT newVegas:LeftHandIndex1
								{
									OFFSET 18.578728 -0.527832 5.208049
									CHANNELS 3 Xrotation Yrotation Zrotation
									JOINT newVegas:LeftHandIndex2
									{
										OFFSET 3.192009 0.000000 0.000000
										CHANNELS 3 Xrotation Yrotation Zrotation
										JOINT newVegas:LeftHandIndex3
										{
											OFFSET 3.835129 0.000000 0.000000
											CHANNELS 3 Xrotation Yrotation Zrotation
											End Site
											{
												OFFSET -0.034599 3.816971 0.371180
											}
										}
									}
								}
								JOINT newVegas:LeftHandMiddle1
								{
									OFFSET 18.476105 0.000000 0.000000
									CHANNELS 3 Xrotation Yrotation Zrotation
									JOINT newVegas:LeftHandMiddle2
									{
										OFFSET 3.324875 0.000000 0.000000
										CHANNELS 3 Xrotation Yrotation Zrotation
										JOINT newVegas:LeftHandMiddle3
										{
											OFFSET 4.596550 0.000000 0.000000
											CHANNELS 3 Xrotation Yrotation Zrotation
											End Site
											{
												OFFSET 0.057701 4.578827 0.399218
											}
										}
									}
								}
								JOINT newVegas:LeftHandRing1
								{
									OFFSET 17.732719 0.121887 -4.201567
									CHANNELS 3 Xrotation Yrotation Zrotation
									JOINT newVegas:LeftHandRing2
									{
										OFFSET 2.733170 0.000000 0.000000
										CHANNELS 3 Xrotation Yrotation Zrotation
										JOINT newVegas:LeftHandRing3
										{
											OFFSET 3.178268 0.000000 0.000000
											CHANNELS 3 Xrotation Yrotation Zrotation
											End Site
											{
												OFFSET 0.119102 3.170624 0.185394
											}
										}
									}
								}
								JOINT newVegas:LeftHandPinky1
								{
									OFFSET 15.989624 -0.606689 -7.535461
									CHANNELS 3 Xrotation Yrotation Zrotation
									JOINT newVegas:LeftHandPinky2
									{
										OFFSET 2.538986 0.000000 0.000000
										CHANNELS 3 Xrotation Yrotation Zrotation
										JOINT newVegas:LeftHandPinky3
										{
											OFFSET 2.593102 0.000000 0.000000
											CHANNELS 3 Xrotation Yrotation Zrotation
											End Site
											{
												OFFSET -0.150902 2.584198 0.152708
											}
										}
									}
								}
							}
							JOINT newVegas:Left_Sleeve
							{
								OFFSET 0.267448 -0.649796 0.577675
								CHANNELS 3 Xrotation Yrotation Zrotation
								End Site
								{
									OFFSET 0.000000 15.991241 0.000000
								}
							}
							JOINT newVegas:Left_CapeC
							{
								OFFSET 15.715958 -8.608795 -6.935905
								CHANNELS 3 Xrotation Yrotation Zrotation
								JOINT newVegas:Left_CapeC1
								{
									OFFSET 0.000000 -8.688499 0.000000
									CHANNELS 3 Xrotation Yrotation Zrotation
									End Site
									{
										OFFSET 0.000000 8.688499 0.000000
									}
								}
							}
						}
						JOINT newVegas:Left_CapeB
						{
							OFFSET 26.118385 -8.608795 -7.079235
							CHANNELS 3 Xrotation Yrotation Zrotation
							JOINT newVegas:Left_CapeB1
							{
								OFFSET 0.000000 -8.688499 0.000000
								CHANNELS 3 Xrotation Yrotation Zrotation
								End Site
								{
									OFFSET 0.000000 8.688499 0.000000
								}
							}
						}
						JOINT newVegas:Left_CapeA
						{
							OFFSET 5.115639 -8.608795 -10.395809
							CHANNELS 3 Xrotation Yrotation Zrotation
							JOINT newVegas:Left_CapeA1
							{
								OFFSET 0.000000 -8.688499 0.000000
								CHANNELS 3 Xrotation Yrotation Zrotation
								End Site
								{
									OFFSET 0.000000 8.688499 0.000000
								}
							}
						}
					}
				}
				JOINT newVegas:RightShoulder
				{
					OFFSET -15.263000 10.923401 -0.547700
					CHANNELS 3 Xrotation Yrotation Zrotation
					JOINT newVegas:RightArm
					{
						OFFSET -25.438599 -2.830597 -13.032500
						CHANNELS 3 Xrotation Yrotation Zrotation
						JOINT newVegas:RightForeArm
						{
							OFFSET -29.960503 0.000000 0.000000
							CHANNELS 3 Xrotation Yrotation Zrotation
							JOINT newVegas:RightHand
							{
								OFFSET -27.849251 0.000000 0.000000
								CHANNELS 3 Xrotation Yrotation Zrotation
								JOINT newVegas:RightHandThumb1
								{
									OFFSET -4.487587 -3.305161 6.305391
									CHANNELS 3 Xrotation Yrotation Zrotation
									JOINT newVegas:RightHandThumb2
									{
										OFFSET -5.480453 -3.164139 3.164143
										CHANNELS 3 Xrotation Yrotation Zrotation
										JOINT newVegas:RightHandThumb3
										{
											OFFSET -5.159721 -2.978973 2.978967
											CHANNELS 3 Xrotation Yrotation Zrotation
											End Site
											{
												OFFSET -2.494507 5.926697 1.738678
											}
										}
									}
								}
								JOINT newVegas:RightHandIndex1
								{
									OFFSET -18.578728 -0.527832 5.208049
									CHANNELS 3 Xrotation Yrotation Zrotation
									JOINT newVegas:RightHandIndex2
									{
										OFFSET -3.192009 0.000000 0.000000
										CHANNELS 3 Xrotation Yrotation Zrotation
										JOINT newVegas:RightHandIndex3
										{
											OFFSET -3.835129 0.000000 0.000000
											CHANNELS 3 Xrotation Yrotation Zrotation
											End Site
											{
												OFFSET 0.034599 3.816971 0.371180
											}
										}
									}
								}
								JOINT newVegas:RightHandMiddle1
								{
									OFFSET -18.476105 0.000000 0.000000
									CHANNELS 3 Xrotation Yrotation Zrotation
									JOINT newVegas:RightHandMiddle2
									{
										OFFSET -3.324875 0.000000 0.000000
										CHANNELS 3 Xrotation Yrotation Zrotation
										JOINT newVegas:RightHandMiddle3
										{
											OFFSET -4.596550 0.000000 0.000000
											CHANNELS 3 Xrotation Yrotation Zrotation
											End Site
											{
												OFFSET -0.057701 4.578827 0.399218
											}
										}
									}
								}
								JOINT newVegas:RightHandRing1
								{
									OFFSET -17.732719 0.121887 -4.201567
									CHANNELS 3 Xrotation Yrotation Zrotation
									JOINT newVegas:RightHandRing2
									{
										OFFSET -2.733170 0.000000 0.000000
										CHANNELS 3 Xrotation Yrotation Zrotation
										JOINT newVegas:RightHandRing3
										{
											OFFSET -3.178268 0.000000 0.000000
											CHANNELS 3 Xrotation Yrotation Zrotation
											End Site
											{
												OFFSET -0.119102 3.170624 0.185394
											}
										}
									}
								}
								JOINT newVegas:RightHandPinky1
								{
									OFFSET -15.989624 -0.606689 -7.535461
									CHANNELS 3 Xrotation Yrotation Zrotation
									JOINT newVegas:RightHandPinky2
									{
										OFFSET -2.538986 0.000000 0.000000
										CHANNELS 3 Xrotation Yrotation Zrotation
										JOINT newVegas:RightHandPinky3
										{
											OFFSET -2.593102 0.000000 0.000000
											CHANNELS 3 Xrotation Yrotation Zrotation
											End Site
											{
												OFFSET 0.150902 2.584198 0.152708
											}
										}
									}
								}
							}
							JOINT newVegas:Right_CapeC
							{
								OFFSET -15.715958 -8.608795 -6.935905
								CHANNELS 3 Xrotation Yrotation Zrotation
								JOINT newVegas:Right_CapeC1
								{
									OFFSET 0.000000 -8.688499 0.000000
									CHANNELS 3 Xrotation Yrotation Zrotation
									End Site
									{
										OFFSET 0.000000 8.688499 0.000000
									}
								}
							}
							JOINT newVegas:Right_Sleeve
							{
								OFFSET -0.267448 -0.649994 0.577675
								CHANNELS 3 Xrotation Yrotation Zrotation
								End Site
								{
									OFFSET 0.000000 15.991302 0.000000
								}
							}
						}
						JOINT newVegas:Right_CapeA
						{
							OFFSET -5.115540 -8.608795 -10.395824
							CHANNELS 3 Xrotation Yrotation Zrotation
							JOINT newVegas:Right_CapeA1
							{
								OFFSET 0.000000 -8.688499 0.000000
								CHANNELS 3 Xrotation Yrotation Zrotation
								End Site
								{
									OFFSET 0.000000 8.688499 0.000000
								}
							}
						}
						JOINT newVegas:Right_CapeB
						{
							OFFSET -26.118187 -8.608795 -7.079266
							CHANNELS 3 Xrotation Yrotation Zrotation
							JOINT newVegas:Right_CapeB1
							{
								OFFSET 0.000000 -8.688499 0.000000
								CHANNELS 3 Xrotation Yrotation Zrotation
								End Site
								{
									OFFSET 0.000000 8.688499 0.000000
								}
							}
						}
					}
				}
				JOINT newVegas:Left_Collar
				{
					OFFSET 18.625099 8.655502 8.828100
					CHANNELS 3 Xrotation Yrotation Zrotation
					JOINT newVegas:Left_Collar1
					{
						OFFSET 14.783401 10.540405 -1.259500
						CHANNELS 3 Xrotation Yrotation Zrotation
						End Site
						{
							OFFSET 0.000000 18.199875 0.000000
						}
					}
				}
				JOINT newVegas:Collar_Back
				{
					OFFSET 0.000000 15.630707 -20.132601
					CHANNELS 3 Xrotation Yrotation Zrotation
					End Site
					{
						OFFSET 0.000000 22.523010 0.000000
					}
				}
				JOINT newVegas:Left_Peck
				{
					OFFSET 17.239599 -5.132599 25.482599
					CHANNELS 3 Xrotation Yrotation Zrotation
					End Site
					{
						OFFSET 0.000000 22.523010 0.000000
					}
				}
				JOINT newVegas:Right_Peck
				{
					OFFSET -17.239599 -5.132202 25.482599
					CHANNELS 3 Xrotation Yrotation Zrotation
					End Site
					{
						OFFSET 0.000000 22.523010 0.000000
					}
				}
				JOINT newVegas:Right_Collar
				{
					OFFSET -18.625099 8.655792 8.828100
					CHANNELS 3 Xrotation Yrotation Zrotation
					JOINT newVegas:Right_Collar1
					{
						OFFSET -14.783401 10.539993 -1.259500
						CHANNELS 3 Xrotation Yrotation Zrotation
						End Site
						{
							OFFSET 0.000000 18.199631 0.000000
						}
					}
				}
			}
		}
		JOINT newVegas:Belly
		{
			OFFSET 0.000000 -6.540398 9.014299
			CHANNELS 3 Xrotation Yrotation Zrotation
			End Site
			{
				OFFSET 0.000000 11.566666 0.000000
			}
		}
	}
	JOINT newVegas:ElvisFacialAnim_Joint
	{
		OFFSET 1.000000 -95.330101 -8.825800
		CHANNELS 3 Xrotation Yrotation Zrotation
		End Site
		{
			OFFSET 0.000000 35.315800 0.000000
		}
	}
}
MOTION
Frames: 4
Frame Time: 0.033333
0.260148 57.801872 -17.785656 -32.439372 -4.453971 -2.897063 0.000001 -0.000000 0.000000 -76.566988 1.029907 12.360170 92.803850 -4.291386 4.425737 23.652125 0.535893 2.522551 0.000001 0.000000 -0.000000 0.000001 -0.000000 0.000000 -76.198280 -4.855287 -11.590622 94.382361 6.176854 -1.033034 18.988112 -1.104152 -8.970661 -0.000000 -0.000002 -0.000000 -0.000000 -0.000001 -0.000000 9.193864 0.543833 0.498146 17.600004 0.588978 1.245385 17.565365 0.772497 1.533720 2.784005 0.009459 -0.545375 2.784070 0.009457 -0.545379 -0.000001 0.000000 -0.000000 2.783958 0.009446 -0.545374 2.784118 0.009467 -0.545378 0.000001 -0.000000 0.000000 -0.000001 0.000000 0.000000 0.609091 4.514301 -11.036172 -3.946141 -39.922060 -60.766902 0.000028 -64.336666 0.000007 12.264767 8.481434 31.984502 4.632567 1.426731 -0.847171 -2.033072 13.980555 6.746641 0.000002 -0.000002 -0.000003 0.006153 -0.291879 2.419280 0.049286 0.824129 -6.845600 -0.000003 -0.000001 -0.000000 0.006243 -0.293820 2.435255 0.049517 0.826031 -6.861599 0.000003 0.000002 -0.000001 0.006160 -0.291881 2.419283 0.049303 0.824134 -6.845599 -0.000003 -0.000001 0.000001 -0.183269 3.757985 2.935438 0.038637 -3.230599 -7.352711 -0.000001 -0.000002 0.000001 0.000001 0.000000 -0.000000 0.000001 0.000000 -0.000000 0.000001 -0.000000 0.000000 -0.000001 0.000001 0.000000 -0.000000 0.000002 0.000000 -0.000001 0.000001 0.000000 -0.000002 0.000002 0.000000 1.240685 2.109556 10.864900 -11.275599 18.962074 64.615188 0.000063 69.619661 -0.000067 40.568588 -8.209589 -17.116888 3.266488 0.179032 8.034266 0.747751 -29.323778 -6.888125 0.000001 -0.000000 -0.000002 0.035329 -0.701376 5.765160 0.011046 -0.392442 3.222017 -0.000001 -0.000001 0.000002 0.035329 -0.701381 5.765150 0.011043 -0.392432 3.222017 0.000001 0.000000 0.000001 0.035331 -0.701380 5.765148 0.011036 -0.392426 3.222027 -0.000001 -0.000001 0.000001 0.035331 -0.701383 5.765148 0.011038 -0.392431 3.222018 0.000003 0.000001 0.000001 0.000000 0.000001 0.000001 0.000000 0.000002 -0.000000 0.000000 0.000001 0.000001 -0.000000 0.000001 -0.000001 -0.000000 0.000001 -0.000000 -0.000000 0.000001 -0.000001 -0.000000 0.000001 -0.000000 0.000001 0.000000 -0.000000 0.000001 0.000000 -0.000000 0.000001 0.000000 -0.000000 0.000001 0.000000 -0.000000 0.000001 0.000000 -0.000000 0.000001 0.000000 -0.000000 0.000001 0.000000 -0.000000 -0.000001 -0.000000 0.000000 0.000001 -0.000000 0.000000 
0.260500 57.804497 -17.779579 -32.540186 -4.585863 -2.890315 -0.000002 -0.000000 -0.000000 -76.435021 1.073830 12.469061 92.868921 -4.259566 4.434766 23.555017 0.531263 2.511239 -0.000000 0.000000 -0.000000 0.000002 -0.000000 0.000000 -76.120969 -4.719316 -11.372585 94.392265 6.124991 -0.992219 18.994459 -1.103409 -8.979676 0.000000 0.000000 0.000000 -0.000000 0.000001 -0.000000 9.350818 0.608999 0.453265 17.894191 0.737957 1.178646 17.859031 0.924408 1.468926 2.772556 -0.013505 -0.498967 2.772548 -0.013505 -0.498967 0.000001 0.000000 -0.000000 2.772554 -0.013508 -0.498966 2.772626 -0.013502 -0.498967 0.000000 -0.000000 -0.000000 0.000001 0.000000 -0.000000 0.600456 4.464213 -10.869082 -4.721169 -40.008270 -61.249824 -0.000009 -64.057674 -0.000023 13.318241 8.178850 32.109416 5.729927 2.729899 -2.888359 -3.004956 12.342592 7.119149 -0.000003 -0.000003 0.000000 0.005641 -0.279421 2.315955 0.063156 0.932384 -7.750452 -0.000004 0.000001 -0.000001 0.005738 -0.281336 2.331959 0.063421 0.934262 -7.766438 -0.000002 -0.000000 0.000001 0.005644 -0.279424 2.315952 0.063161 0.932391 -7.750444 0.000001 -0.000002 -0.000000 -0.176476 3.770784 2.831938 0.053474 -3.122483 -8.256535 -0.000000 -0.000002 -0.000000 0.000003 0.000001 -0.000003 0.000003 0.000001 -0.000003 0.000003 0.000000 -0.000003 0.000002 0.000000 -0.000001 0.000003 0.000000 -0.000001 0.000002 0.000000 -0.000001 0.000001 0.000000 -0.000001 1.247664 2.094746 11.036353 -11.471671 18.508609 64.400208 0.000003 70.121591 0.000000 39.693764 -7.336339 -17.114967 4.943889 -0.413964 7.800909 3.071277 -28.710034 -5.558769 0.000003 -0.000004 -0.000003 0.035903 -0.707176 5.813079 0.013494 -0.433984 3.563358 -0.000002 0.000000 -0.000002 0.035903 -0.707181 5.813079 0.013501 -0.433972 3.563362 -0.000002 -0.000000 0.000001 0.035898 -0.707168 5.813083 0.013494 -0.433986 3.563361 -0.000004 -0.000001 -0.000000 0.035901 -0.707175 5.813083 0.013499 -0.433966 3.563362 -0.000001 0.000001 0.000001 -0.000000 0.000000 -0.000001 0.000000 -0.000001 -0.000001 -0.000000 0.000000 -0.000001 0.000001 0.000001 0.000000 0.000001 0.000000 0.000000 0.000001 0.000001 0.000000 0.000001 -0.000000 0.000000 -0.000000 0.000000 -0.000000 -0.000000 0.000000 -0.000000 -0.000000 0.000000 -0.000000 -0.000000 0.000000 -0.000000 -0.000000 0.000000 -0.000000 -0.000000 0.000000 -0.000000 -0.000000 0.000000 -0.000000 0.000000 0.000000 -0.000000 -0.000002 -0.000000 -0.000000 
0.259368 57.803757 -17.776814 -32.635737 -4.723318 -2.879759 -0.000002 -0.000000 -0.000000 -76.308417 1.114966 12.587174 92.928685 -4.233927 4.433437 23.463687 0.527040 2.500181 0.000000 -0.000000 -0.000000 -0.000001 -0.000000 -0.000000 -76.053630 -4.559687 -11.145540 94.397326 6.073385 -0.942284 19.012595 -1.101662 -8.968604 -0.000000 0.000001 0.000000 0.000002 0.000001 0.000000 9.508428 0.676069 0.408907 18.189497 0.888763 1.113936 18.153632 1.078529 1.407084 2.761876 -0.037328 -0.453721 2.761886 -0.037328 -0.453718 0.000001 -0.000000 -0.000000 2.762027 -0.037329 -0.453719 2.761894 -0.037327 -0.453720 0.000002 0.000000 -0.000000 0.000001 -0.000000 -0.000000 0.592340 4.419096 -10.709823 -5.493578 -40.162332 -61.693588 -0.000009 -63.722182 -0.000016 14.277943 7.867981 32.277568 6.929068 4.036547 -5.036537 -4.039691 10.733246 7.526099 0.000001 -0.000002 -0.000003 0.005360 -0.272226 2.256336 0.083830 1.073388 -8.931534 -0.000000 0.000001 -0.000002 0.005430 -0.274155 2.272329 0.084130 1.075285 -8.947529 -0.000002 -0.000000 -0.000001 0.005357 -0.272218 2.256341 0.083843 1.073376 -8.931540 -0.000003 -0.000001 0.000001 -0.172549 3.778156 2.772208 0.075423 -2.981691 -9.436089 0.000000 -0.000003 -0.000000 0.000001 0.000001 0.000002 0.000001 0.000001 0.000002 0.000001 0.000000 0.000002 0.000000 0.000003 0.000002 0.000000 0.000002 0.000001 0.000000 0.000003 0.000002 -0.000001 0.000002 0.000001 1.254964 2.081185 11.209329 -11.664084 18.072397 64.148986 -0.000077 70.600797 0.000066 38.890920 -6.479839 -17.147521 6.754409 -1.252767 7.653031 5.493717 -28.272405 -4.199547 0.000000 0.000001 -0.000000 0.042513 -0.769348 6.326122 0.016216 -0.475471 3.904724 -0.000000 0.000003 -0.000001 0.042524 -0.769343 6.326123 0.016209 -0.475476 3.904725 0.000003 0.000000 0.000001 0.042522 -0.769346 6.326120 0.016215 -0.475467 3.904723 -0.000003 -0.000001 -0.000000 0.042518 -0.769336 6.326125 0.016208 -0.475469 3.904724 -0.000000 -0.000000 -0.000002 0.000000 -0.000002 0.000001 0.000000 -0.000000 0.000000 0.000000 -0.000002 -0.000000 -0.000001 0.000001 -0.000000 -0.000001 0.000000 -0.000000 -0.000001 0.000001 -0.000000 -0.000001 -0.000000 -0.000000 0.000000 -0.000000 -0.000000 0.000000 -0.000000 -0.000000 0.000000 -0.000000 -0.000000 0.000000 -0.000000 -0.000000 0.000000 -0.000000 -0.000000 0.000000 -0.000000 -0.000000 0.000000 -0.000000 -0.000000 0.000001 -0.000000 -0.000000 -0.000002 -0.000000 -0.000000 
0.257098 57.802971 -17.776791 -32.728248 -4.858607 -2.869650 0.000001 -0.000001 -0.000000 -76.184244 1.152849 12.715731 92.979754 -4.220743 4.423441 23.382087 0.523629 2.490109 0.000001 0.000000 -0.000000 0.000001 -0.000000 0.000000 -75.982310 -4.371869 -10.923832 94.391152 6.028935 -0.867982 19.040045 -1.098731 -8.936779 0.000001 -0.000000 0.000000 0.000001 -0.000000 0.000000 9.666805 0.744804 0.363975 18.484925 1.043395 1.058583 18.448139 1.235952 1.355707 2.752069 -0.061803 -0.413499 2.752081 -0.061801 -0.413499 0.000001 0.000000 -0.000000 2.752083 -0.061800 -0.413498 2.752081 -0.061804 -0.413499 0.000001 0.000000 -0.000000 0.000001 0.000000 -0.000000 0.585657 4.386974 -10.580513 -6.244549 -40.450921 -62.058580 -0.000008 -63.284640 -0.000010 15.113402 7.536139 32.504225 8.180493 5.328914 -7.224098 -5.133897 9.196893 7.984385 0.000001 -0.000002 -0.000003 0.005337 -0.271344 2.248998 0.112936 1.244494 -10.370561 0.000001 0.000000 -0.000001 0.005415 -0.273276 2.264982 0.113299 1.246394 -10.386547 0.000005 0.000000 -0.000000 0.005332 -0.271346 2.249001 0.112931 1.244501 -10.370567 -0.000003 0.000001 0.000002 -0.172055 3.779065 2.764846 0.106060 -2.810803 -10.872959 -0.000000 -0.000003 0.000001 0.000002 -0.000002 0.000001 0.000002 -0.000002 0.000001 0.000001 -0.000002 0.000001 0.000001 -0.000001 -0.000002 0.000001 -0.000001 -0.000001 0.000001 -0.000001 -0.000002 -0.000001 -0.000001 -0.000002 1.262187 2.071079 11.372327 -11.835676 17.656601 63.852713 0.000058 71.073391 -0.000055 38.115656 -5.669422 -17.186067 8.705437 -2.422932 7.619797 7.992934 -28.078500 -2.809193 0.000000 -0.000001 -0.000002 0.057191 -0.891784 7.338339 0.022760 -0.563394 4.628102 -0.000002 0.000001 -0.000001 0.057192 -0.891776 7.338342 0.022771 -0.563398 4.628101 0.000004 0.000002 -0.000001 0.057191 -0.891776 7.338341 0.022763 -0.563404 4.628104 -0.000001 -0.000001 -0.000001 0.057189 -0.891783 7.338345 0.022764 -0.563394 4.628104 -0.000001 0.000002 -0.000003 0.000000 -0.000001 0.000002 0.000000 -0.000002 0.000001 -0.000000 -0.000001 0.000002 -0.000001 0.000000 -0.000001 -0.000001 0.000000 -0.000001 -0.000001 0.000000 -0.000001 -0.000001 -0.000000 -0.000001 0.000000 0.000000 -0.000000 0.000000 0.000000 -0.000000 0.000000 0.000000 -0.000000 0.000000 0.000000 -0.000000 0.000000 0.000000 -0.000000 0.000000 0.000000 -0.000000 0.000000 0.000000 -0.000000 0.000001 0.000001 0.000000 0.000001 -0.000001 -0.000000 
